<svg id="Layer_1" data-name="Layer 1" xmlns="http://www.w3.org/2000/svg" viewBox="0 0 39 39"><defs><style>.cls-1{fill:#52bbe8;}.cls-2{fill:#52e87f;}.cls-3{fill:#86e852;}.cls-4{fill:#fff;}.cls-5{fill:#fbb821;}.cls-6{fill:#472b29;}.cls-7{fill:#77cbd2;}.cls-8{fill:#0091ea;}.cls-9{fill:#fcc938;}</style></defs><circle class="cls-1" cx="33" cy="1" r="0.5"/><circle class="cls-2" cx="19.5" cy="19.5" r="18.5"/><circle class="cls-1" cx="36" cy="2" r="2"/><circle class="cls-3" cx="38" cy="6.5" r="1"/><circle class="cls-1" cx="35" cy="32.5" r="1"/><circle class="cls-1" cx="2" cy="26" r="2"/><circle class="cls-3" cx="7" cy="38" r="1"/><circle class="cls-4" cx="3.75" cy="20.25" r="1.25"/><circle class="cls-4" cx="34.25" cy="11.25" r="0.75"/><path class="cls-5" d="M25,14.48A11.76,11.76,0,1,0,36.76,26.24,11.75,11.75,0,0,0,25,14.48Z" transform="translate(-5.5 -5.5)"/><path class="cls-6" d="M25,38.35A12.11,12.11,0,1,1,37.11,26.24,12.12,12.12,0,0,1,25,38.35Zm0-23.52A11.41,11.41,0,1,0,36.41,26.24,11.42,11.42,0,0,0,25,14.83Z" transform="translate(-5.5 -5.5)"/><path class="cls-7" d="M25,17a9.29,9.29,0,1,0,1.77.17" transform="translate(-5.5 -5.5)"/><path class="cls-8" d="M30.77,26.94l.32-.06h0c.69-.11,1.3-.19,1.81-.24h0c.46-.05.82-.07,1.08-.09A10.11,10.11,0,0,0,31.61,20a11.67,11.67,0,0,0-3.44,1.78l-.08.06-.25.2-.16.13-.14.12-.27.24A8.75,8.75,0,0,1,25,26.06a10.81,10.81,0,0,1-1.28,1.1v4A7,7,0,0,1,24.58,30,8.25,8.25,0,0,1,29,27.37Z" transform="translate(-5.5 -5.5)"/><path class="cls-8" d="M27.17,32.9a1.87,1.87,0,0,1-1.92-1.15A18.35,18.35,0,0,0,23,33.17V34h7.26a9.6,9.6,0,0,0,2.63-3.5,9.06,9.06,0,0,0-3.14-.44c.51,1.64-1.22,2.84-2.58,2.84" transform="translate(-5.5 -5.5)"/><path class="cls-8" d="M29,19.41c.18-.1.38-.2.58-.29h0a10,10,0,0,1,.93-.38,8.19,8.19,0,0,0-1.35-.91,15.06,15.06,0,0,0-1.67.91,2.29,2.29,0,0,1,.43,1.33l.34-.23h0" transform="translate(-5.5 -5.5)"/><path class="cls-6" d="M27.91,20.14h0a.07.07,0,0,1,0-.06,2.14,2.14,0,0,0-.41-1.29.08.08,0,0,1,0-.05l0,0a14.43,14.43,0,0,1,1.68-.91.06.06,0,0,1,.06,0,7.87,7.87,0,0,1,1.36.91s0,0,0,.06a.07.07,0,0,1,0,.05,7.56,7.56,0,0,0-.91.37h0l-.58.28a.07.07,0,0,1-.09,0,.08.08,0,0,1,0-.09l.56-.28h0c.29-.13.56-.24.84-.34a8,8,0,0,0-1.23-.82,15.19,15.19,0,0,0-1.58.86A2.2,2.2,0,0,1,28,20l.26-.17h0a.06.06,0,1,1,.06.1l0,0-.34.22Z" transform="translate(-5.5 -5.5)"/><path class="cls-6" d="M25,35.77A9.54,9.54,0,1,1,25,16.7a.25.25,0,0,1,0,.5,9.06,9.06,0,1,0,1.73.17.25.25,0,0,1-.2-.3.25.25,0,0,1,.29-.19A9.53,9.53,0,0,1,25,35.77Z" transform="translate(-5.5 -5.5)"/><path class="cls-6" d="M23.76,31.25h0a.06.06,0,0,1-.05-.06v-4a.08.08,0,0,1,0-.05A11.3,11.3,0,0,0,25,26a8.62,8.62,0,0,0,2.21-3.51s0,0,0,0l.26-.24.11-.08,0,0L27.8,22l.25-.2.08-.06a11.65,11.65,0,0,1,3.46-1.79.07.07,0,0,1,.07,0,10.23,10.23,0,0,1,2.4,6.59.05.05,0,0,1-.06.06l-1.06.09h0c-.6.06-1.21.14-1.81.24l-.31,0a.05.05,0,0,1-.07,0s0-.06.05-.07l.29-.05c.62-.1,1.22-.18,1.82-.24h0l1-.09a10.12,10.12,0,0,0-2.35-6.42,11.38,11.38,0,0,0-3.38,1.76l-.08.06-.25.2-.16.13,0,0-.1.09-.25.22a8.87,8.87,0,0,1-2.24,3.55,11.93,11.93,0,0,1-1.26,1.08V31a7.31,7.31,0,0,1,.7-1,8.26,8.26,0,0,1,3.8-2.5.06.06,0,0,1,0,.12,8.24,8.24,0,0,0-3.75,2.46,6.33,6.33,0,0,0-.8,1.15A.07.07,0,0,1,23.76,31.25Z" transform="translate(-5.5 -5.5)"/><path class="cls-6" d="M29,27.43a.07.07,0,0,1-.06,0,.06.06,0,0,1,0-.08l.54-.13a.06.06,0,0,1,.07,0,.06.06,0,0,1,0,.08l-.54.13Z" transform="translate(-5.5 -5.5)"/><path class="cls-6" d="M27.86,32.87a.06.06,0,0,1-.06,0,.05.05,0,0,1,.05-.07,4.84,4.84,0,0,0,.49-.18.07.07,0,0,1,.09,0,.06.06,0,0,1,0,.08,3.63,3.63,0,0,1-.52.19Z" transform="translate(-5.5 -5.5)"/><path class="cls-6" d="M30.26,34.06H23a.06.06,0,0,1-.06-.06v-.83a.08.08,0,0,1,0-.05,18.78,18.78,0,0,1,2.26-1.42h.05s0,0,0,0a1.81,1.81,0,0,0,1.86,1.11.06.06,0,0,1,.06.06.06.06,0,0,1-.06.06,2,2,0,0,1-2-1.12,21,21,0,0,0-2.15,1.36v.74h7.18a9.55,9.55,0,0,0,2.56-3.4,9.12,9.12,0,0,0-3-.41,2.15,2.15,0,0,1-1.2,2.43s-.06,0-.08,0a.05.05,0,0,1,0-.08,2,2,0,0,0,1.12-2.37,0,0,0,0,1,0,0,.05.05,0,0,1,.05,0,8.9,8.9,0,0,1,3.16.45,0,0,0,0,1,0,0,0,0,0,0,1,0,.05,9.56,9.56,0,0,1-2.64,3.52Z" transform="translate(-5.5 -5.5)"/><path class="cls-9" d="M16.33,12h7.43V34.29H36.14L33.05,38H16.33l1.86-2.48v-21Z" transform="translate(-5.5 -5.5)"/><path class="cls-6" d="M33.05,38.35H16.33a.36.36,0,0,1-.31-.19.35.35,0,0,1,0-.37l1.79-2.38V14.59l-1.79-2.38a.35.35,0,0,1,0-.37.36.36,0,0,1,.31-.19h7.43a.35.35,0,0,1,.35.35V33.94h12a.34.34,0,0,1,.32.2.34.34,0,0,1-.05.37l-3.09,3.71A.37.37,0,0,1,33.05,38.35Zm-16-.7H32.88l2.52-3H23.76a.35.35,0,0,1-.35-.35V12.35H17l1.44,1.92a.31.31,0,0,1,.07.21v21a.31.31,0,0,1-.07.21Z" transform="translate(-5.5 -5.5)"/></svg>